<svg width="230" height="43" viewBox="0 0 230 43" fill="none" xmlns="http://www.w3.org/2000/svg">
<path d="M72.736 6.062C72.736 6.44333 72.528 6.66 72.112 6.712L71.202 6.816C70.8033 6.868 70.5953 7.08467 70.578 7.466C70.578 7.89933 70.5693 8.324 70.552 8.74C70.552 9.156 70.552 9.58067 70.552 10.014V17.45C70.552 17.8833 70.552 18.3167 70.552 18.75C70.5693 19.166 70.578 19.5907 70.578 20.024C70.6127 20.4573 70.8207 20.6827 71.202 20.7L72.112 20.804C72.528 20.856 72.736 21.064 72.736 21.428C72.736 21.8093 72.5193 22 72.086 22H66.08C65.6467 22 65.43 21.8093 65.43 21.428C65.43 21.064 65.638 20.856 66.054 20.804L66.912 20.726C67.3107 20.674 67.51 20.4487 67.51 20.05C67.5273 19.6167 67.536 19.192 67.536 18.776C67.536 18.3427 67.536 17.9093 67.536 17.476V9.442L61.894 22H60.984L55.29 9.39V19.946C55.29 20.3447 55.4893 20.57 55.888 20.622L56.902 20.778C57.3007 20.83 57.5 21.0467 57.5 21.428C57.5 21.8093 57.2833 22 56.85 22H52.3C51.8667 22 51.65 21.8093 51.65 21.428C51.65 21.0467 51.8493 20.83 52.248 20.778L53.366 20.622C53.7647 20.57 53.964 20.3447 53.964 19.946V7.518C53.964 7.102 53.7647 6.868 53.366 6.816L52.404 6.712C52.0053 6.66 51.806 6.44333 51.806 6.062C51.806 5.68067 52.0227 5.49 52.456 5.49H56.538L62.284 18.022L67.77 5.984C67.926 5.65467 68.186 5.49 68.55 5.49H72.086C72.5193 5.49 72.736 5.68067 72.736 6.062ZM86.1012 20.232C86.1359 20.1973 86.2486 20.2667 86.4392 20.44C86.6472 20.648 86.6386 20.908 86.4132 21.22C86.1359 21.6187 85.8326 21.8873 85.5032 22.026C85.1739 22.182 84.7839 22.26 84.3332 22.26C83.6226 22.26 83.0592 22.1127 82.6432 21.818C82.2446 21.506 81.9672 21.0987 81.8112 20.596C81.2566 21.1507 80.7192 21.5927 80.1992 21.922C79.6792 22.234 79.0119 22.39 78.1972 22.39C77.2439 22.39 76.4379 22.13 75.7792 21.61C75.1379 21.09 74.8172 20.3273 74.8172 19.322C74.8172 18.646 74.9992 18.0653 75.3632 17.58C75.7446 17.0947 76.2126 16.6787 76.7672 16.332C77.3392 15.9853 77.9459 15.6993 78.5872 15.474C79.2286 15.2487 79.8266 15.058 80.3812 14.902L81.7072 14.512V13.836C81.7072 12.692 81.5339 11.912 81.1872 11.496C80.8579 11.0627 80.2859 10.846 79.4712 10.846C79.3846 10.846 79.2979 10.846 79.2112 10.846C79.1419 10.846 79.0639 10.8547 78.9772 10.872C78.6306 10.8893 78.4139 11.0973 78.3272 11.496L78.0932 12.562C77.8852 13.602 77.3652 14.122 76.5332 14.122C76.1866 14.122 75.8919 14.018 75.6492 13.81C75.4066 13.5847 75.2679 13.2987 75.2332 12.952C75.3892 11.9813 75.9092 11.1927 76.7932 10.586C77.6946 9.97933 78.8732 9.676 80.3292 9.676C81.7679 9.676 82.8166 10.0227 83.4752 10.716C84.1339 11.4093 84.4632 12.6313 84.4632 14.382V19.608C84.4632 20.388 84.7059 20.778 85.1912 20.778C85.3992 20.778 85.5899 20.7173 85.7632 20.596C85.8846 20.5093 85.9626 20.44 85.9972 20.388C86.0319 20.3187 86.0666 20.2667 86.1012 20.232ZM81.7072 19.582V15.552C81.2912 15.656 80.8406 15.786 80.3552 15.942C79.8872 16.098 79.4452 16.2973 79.0292 16.54C78.6132 16.7827 78.2666 17.086 77.9892 17.45C77.7119 17.7967 77.5732 18.2213 77.5732 18.724C77.5732 19.3133 77.7466 19.7727 78.0932 20.102C78.4572 20.4313 78.9339 20.596 79.5232 20.596C79.8699 20.596 80.1906 20.5267 80.4852 20.388C80.7972 20.2493 81.2046 19.9807 81.7072 19.582ZM99.1266 15.162C99.0573 15.5433 98.8146 15.734 98.3986 15.734H90.8586C90.8933 17.3113 91.2746 18.4987 92.0026 19.296C92.7306 20.0933 93.6753 20.492 94.8366 20.492C95.5126 20.492 96.0846 20.3707 96.5526 20.128C97.0379 19.868 97.4799 19.5127 97.8786 19.062C98.0693 18.854 98.2513 18.75 98.4246 18.75C98.5113 18.75 98.5893 18.776 98.6586 18.828C98.9186 19.0013 98.9533 19.2613 98.7626 19.608C98.3119 20.492 97.6619 21.168 96.8126 21.636C95.9633 22.104 94.9666 22.338 93.8226 22.338C92.8519 22.338 91.9853 22.1733 91.2226 21.844C90.4773 21.5147 89.8446 21.064 89.3246 20.492C88.8219 19.9027 88.4406 19.2093 88.1806 18.412C87.9206 17.6147 87.7906 16.748 87.7906 15.812C87.7906 14.9107 87.9379 14.0527 88.2326 13.238C88.5273 12.4233 88.9433 11.7127 89.4806 11.106C90.0353 10.482 90.6939 9.99667 91.4566 9.65C92.2366 9.286 93.0946 9.104 94.0306 9.104C94.8106 9.104 95.5126 9.234 96.1366 9.494C96.7779 9.754 97.3239 10.118 97.7746 10.586C98.2253 11.0367 98.5719 11.5827 98.8146 12.224C99.0573 12.8653 99.1786 13.576 99.1786 14.356C99.1786 14.4947 99.1786 14.6333 99.1786 14.772C99.1786 14.8933 99.1613 15.0233 99.1266 15.162ZM90.9106 14.538H94.8106C95.4346 14.538 95.8506 14.408 96.0586 14.148C96.2839 13.888 96.3966 13.524 96.3966 13.056C96.3966 12.276 96.1713 11.626 95.7206 11.106C95.2873 10.586 94.7413 10.326 94.0826 10.326C93.5453 10.326 93.0773 10.4647 92.6786 10.742C92.2973 11.002 91.9766 11.34 91.7166 11.756C91.4739 12.172 91.2833 12.6313 91.1446 13.134C91.0233 13.6193 90.9453 14.0873 90.9106 14.538ZM106.343 14.564L107.175 14.85C107.816 15.0927 108.345 15.3527 108.761 15.63C109.194 15.89 109.55 16.1673 109.827 16.462C110.07 16.774 110.243 17.112 110.347 17.476C110.451 17.8227 110.503 18.1953 110.503 18.594C110.503 19.2873 110.347 19.8767 110.035 20.362C109.74 20.83 109.35 21.22 108.865 21.532C108.38 21.8267 107.834 22.0433 107.227 22.182C106.638 22.3207 106.048 22.39 105.459 22.39C104.731 22.39 104.09 22.312 103.535 22.156C102.98 22.0173 102.426 21.8093 101.871 21.532C101.559 21.3933 101.403 21.142 101.403 20.778L101.377 19.14C101.377 18.7067 101.585 18.49 102.001 18.49H102.417C102.798 18.49 103.032 18.6893 103.119 19.088L103.327 20.18C103.379 20.5267 103.561 20.752 103.873 20.856C104.393 21.064 104.93 21.168 105.485 21.168C106.369 21.168 107.01 21.012 107.409 20.7C107.808 20.388 108.007 19.9547 108.007 19.4C108.007 18.8973 107.834 18.5073 107.487 18.23C107.14 17.9353 106.525 17.6147 105.641 17.268L104.497 16.852C103.526 16.4533 102.781 15.9767 102.261 15.422C101.741 14.8673 101.481 14.1567 101.481 13.29C101.481 12.6313 101.62 12.0767 101.897 11.626C102.174 11.1753 102.538 10.8027 102.989 10.508C103.44 10.2133 103.942 10.0053 104.497 9.884C105.052 9.74533 105.615 9.676 106.187 9.676C106.794 9.676 107.348 9.74533 107.851 9.884C108.354 10.0053 108.856 10.1873 109.359 10.43C109.688 10.586 109.844 10.846 109.827 11.21L109.749 12.666C109.732 13.082 109.515 13.29 109.099 13.29H108.709C108.31 13.29 108.076 13.0993 108.007 12.718L107.825 11.756C107.756 11.392 107.565 11.1667 107.253 11.08C106.889 10.9413 106.508 10.872 106.109 10.872C105.416 10.872 104.878 11.0193 104.497 11.314C104.133 11.6087 103.951 12.0333 103.951 12.588C103.951 13.004 104.116 13.3593 104.445 13.654C104.618 13.7927 104.861 13.94 105.173 14.096C105.502 14.252 105.892 14.408 106.343 14.564ZM118.736 20.284C118.926 20.18 119.091 20.128 119.23 20.128C119.368 20.128 119.49 20.1887 119.594 20.31C119.819 20.5873 119.802 20.8647 119.542 21.142C119.212 21.4887 118.805 21.766 118.32 21.974C117.852 22.1647 117.288 22.26 116.63 22.26C115.676 22.26 114.922 22.026 114.368 21.558C113.83 21.0727 113.562 20.3187 113.562 19.296C113.562 19.0707 113.562 18.8713 113.562 18.698C113.562 18.5073 113.57 18.3253 113.588 18.152V12.224C113.588 11.7907 113.371 11.574 112.938 11.574H112.392C111.958 11.574 111.742 11.366 111.742 10.95C111.742 10.5513 111.941 10.326 112.34 10.274L113.25 10.17C113.614 10.118 113.83 9.91 113.9 9.546L114.368 7.206C114.437 6.82467 114.671 6.634 115.07 6.634H115.798C116.214 6.634 116.422 6.85067 116.422 7.284L116.37 9.468C116.37 9.90133 116.586 10.118 117.02 10.118H118.814C119.247 10.118 119.464 10.3347 119.464 10.768V10.924C119.464 11.3573 119.247 11.574 118.814 11.574H116.994C116.56 11.574 116.344 11.7907 116.344 12.224V18.802C116.344 19.4433 116.465 19.9027 116.708 20.18C116.968 20.4573 117.297 20.596 117.696 20.596C117.834 20.596 117.99 20.5787 118.164 20.544C118.354 20.492 118.545 20.4053 118.736 20.284ZM124.954 9.806C125.023 9.858 125.075 9.92733 125.11 10.014C125.144 10.1007 125.17 10.2393 125.188 10.43L125.37 12.588C125.838 11.6693 126.375 10.9587 126.982 10.456C127.606 9.936 128.238 9.676 128.88 9.676C129.226 9.676 129.582 9.78 129.946 9.988C130.31 10.196 130.544 10.5513 130.648 11.054C130.648 11.5393 130.5 11.9293 130.206 12.224C129.911 12.5013 129.512 12.64 129.01 12.64C128.42 12.64 127.866 12.3713 127.346 11.834L127.216 11.704C126.834 12.0507 126.488 12.4407 126.176 12.874C125.881 13.29 125.621 13.7927 125.396 14.382V20.05C125.413 20.4487 125.612 20.6827 125.994 20.752L126.826 20.908C127.224 20.9947 127.424 21.194 127.424 21.506C127.424 21.8353 127.207 22 126.774 22H121.574C121.14 22 120.924 21.8353 120.924 21.506C120.924 21.194 121.123 20.9947 121.522 20.908L122.042 20.804C122.423 20.7173 122.622 20.492 122.64 20.128V15.422C122.64 15.0753 122.64 14.7633 122.64 14.486C122.64 14.2087 122.631 13.966 122.614 13.758C122.596 13.6193 122.588 13.4893 122.588 13.368C122.588 13.2467 122.588 13.1167 122.588 12.978C122.553 12.5793 122.345 12.354 121.964 12.302L121.34 12.224C120.941 12.172 120.742 11.99 120.742 11.678C120.742 11.3833 120.915 11.1667 121.262 11.028L124.278 9.858C124.434 9.78867 124.581 9.754 124.72 9.754C124.824 9.754 124.902 9.77133 124.954 9.806ZM137.872 9.676C138.774 9.676 139.597 9.84933 140.342 10.196C141.088 10.5253 141.72 10.9847 142.24 11.574C142.778 12.146 143.185 12.822 143.462 13.602C143.757 14.3647 143.904 15.188 143.904 16.072C143.904 16.9733 143.757 17.814 143.462 18.594C143.185 19.3567 142.786 20.024 142.266 20.596C141.746 21.1507 141.114 21.5927 140.368 21.922C139.623 22.234 138.791 22.39 137.872 22.39C136.954 22.39 136.122 22.234 135.376 21.922C134.631 21.5927 133.998 21.1507 133.478 20.596C132.958 20.024 132.551 19.3567 132.256 18.594C131.979 17.814 131.84 16.9733 131.84 16.072C131.84 15.188 131.979 14.356 132.256 13.576C132.551 12.796 132.958 12.12 133.478 11.548C134.016 10.976 134.648 10.5253 135.376 10.196C136.122 9.84933 136.954 9.676 137.872 9.676ZM137.872 10.846C135.879 10.846 134.882 12.5793 134.882 16.046C134.882 19.478 135.879 21.194 137.872 21.194C139.866 21.194 140.862 19.478 140.862 16.046C140.862 12.5793 139.866 10.846 137.872 10.846Z" fill="white"/>
<path d="M166.58 6.062C166.58 6.44333 166.372 6.66 165.956 6.712L165.046 6.816C164.647 6.868 164.439 7.08467 164.422 7.466C164.422 7.89933 164.413 8.324 164.396 8.74C164.396 9.156 164.396 9.58067 164.396 10.014V17.45C164.396 17.8833 164.396 18.3167 164.396 18.75C164.413 19.166 164.422 19.5907 164.422 20.024C164.456 20.4573 164.664 20.6827 165.046 20.7L165.956 20.804C166.372 20.856 166.58 21.064 166.58 21.428C166.58 21.8093 166.363 22 165.93 22H159.924C159.49 22 159.274 21.8093 159.274 21.428C159.274 21.064 159.482 20.856 159.898 20.804L160.756 20.726C161.154 20.674 161.354 20.4487 161.354 20.05C161.371 19.6167 161.38 19.192 161.38 18.776C161.38 18.3427 161.38 17.9093 161.38 17.476V9.442L155.738 22H154.828L149.134 9.39V19.946C149.134 20.3447 149.333 20.57 149.732 20.622L150.746 20.778C151.144 20.83 151.344 21.0467 151.344 21.428C151.344 21.8093 151.127 22 150.694 22H146.144C145.71 22 145.494 21.8093 145.494 21.428C145.494 21.0467 145.693 20.83 146.092 20.778L147.21 20.622C147.608 20.57 147.808 20.3447 147.808 19.946V7.518C147.808 7.102 147.608 6.868 147.21 6.816L146.248 6.712C145.849 6.66 145.65 6.44333 145.65 6.062C145.65 5.68067 145.866 5.49 146.3 5.49H150.382L156.128 18.022L161.614 5.984C161.77 5.65467 162.03 5.49 162.394 5.49H165.93C166.363 5.49 166.58 5.68067 166.58 6.062ZM179.945 15.162C179.876 15.5433 179.633 15.734 179.217 15.734H171.677C171.712 17.3113 172.093 18.4987 172.821 19.296C173.549 20.0933 174.494 20.492 175.655 20.492C176.331 20.492 176.903 20.3707 177.371 20.128C177.856 19.868 178.298 19.5127 178.697 19.062C178.888 18.854 179.07 18.75 179.243 18.75C179.33 18.75 179.408 18.776 179.477 18.828C179.737 19.0013 179.772 19.2613 179.581 19.608C179.13 20.492 178.48 21.168 177.631 21.636C176.782 22.104 175.785 22.338 174.641 22.338C173.67 22.338 172.804 22.1733 172.041 21.844C171.296 21.5147 170.663 21.064 170.143 20.492C169.64 19.9027 169.259 19.2093 168.999 18.412C168.739 17.6147 168.609 16.748 168.609 15.812C168.609 14.9107 168.756 14.0527 169.051 13.238C169.346 12.4233 169.762 11.7127 170.299 11.106C170.854 10.482 171.512 9.99667 172.275 9.65C173.055 9.286 173.913 9.104 174.849 9.104C175.629 9.104 176.331 9.234 176.955 9.494C177.596 9.754 178.142 10.118 178.593 10.586C179.044 11.0367 179.39 11.5827 179.633 12.224C179.876 12.8653 179.997 13.576 179.997 14.356C179.997 14.4947 179.997 14.6333 179.997 14.772C179.997 14.8933 179.98 15.0233 179.945 15.162ZM171.729 14.538H175.629C176.253 14.538 176.669 14.408 176.877 14.148C177.102 13.888 177.215 13.524 177.215 13.056C177.215 12.276 176.99 11.626 176.539 11.106C176.106 10.586 175.56 10.326 174.901 10.326C174.364 10.326 173.896 10.4647 173.497 10.742C173.116 11.002 172.795 11.34 172.535 11.756C172.292 12.172 172.102 12.6313 171.963 13.134C171.842 13.6193 171.764 14.0873 171.729 14.538ZM194.129 20.128C194.147 20.492 194.346 20.7173 194.727 20.804L195.169 20.882C195.551 20.9687 195.741 21.1767 195.741 21.506C195.741 21.8353 195.525 22 195.091 22H190.307C189.874 22 189.657 21.8353 189.657 21.506C189.657 21.1767 189.848 20.9773 190.229 20.908L190.749 20.804C191.131 20.7173 191.33 20.492 191.347 20.128V14.46C191.347 13.42 191.217 12.6833 190.957 12.25C190.715 11.7993 190.264 11.574 189.605 11.574C189.068 11.574 188.548 11.704 188.045 11.964C187.56 12.224 187.04 12.614 186.485 13.134V20.128C186.503 20.492 186.702 20.7173 187.083 20.804L187.551 20.908C187.933 20.9773 188.123 21.1767 188.123 21.506C188.123 21.8353 187.907 22 187.473 22H182.637C182.204 22 181.987 21.8353 181.987 21.506C181.987 21.194 182.187 20.9947 182.585 20.908L183.131 20.804C183.513 20.7173 183.712 20.492 183.729 20.128V15.422C183.729 15.0753 183.729 14.7633 183.729 14.486C183.729 14.2087 183.721 13.966 183.703 13.758C183.686 13.6193 183.677 13.4893 183.677 13.368C183.677 13.2467 183.677 13.1167 183.677 12.978C183.643 12.5793 183.435 12.354 183.053 12.302L182.429 12.224C182.031 12.172 181.831 11.99 181.831 11.678C181.831 11.3833 182.005 11.1667 182.351 11.028L185.367 9.858C185.523 9.78867 185.679 9.754 185.835 9.754C185.939 9.754 186.009 9.77133 186.043 9.806C186.182 9.89267 186.26 10.092 186.277 10.404L186.407 11.938C187.066 11.1753 187.733 10.612 188.409 10.248C189.085 9.86667 189.848 9.676 190.697 9.676C191.841 9.676 192.699 10.0313 193.271 10.742C193.843 11.4353 194.129 12.5793 194.129 14.174V20.128ZM203.667 20.284C203.858 20.18 204.023 20.128 204.161 20.128C204.3 20.128 204.421 20.1887 204.525 20.31C204.751 20.5873 204.733 20.8647 204.473 21.142C204.144 21.4887 203.737 21.766 203.251 21.974C202.783 22.1647 202.22 22.26 201.561 22.26C200.608 22.26 199.854 22.026 199.299 21.558C198.762 21.0727 198.493 20.3187 198.493 19.296C198.493 19.0707 198.493 18.8713 198.493 18.698C198.493 18.5073 198.502 18.3253 198.519 18.152V12.224C198.519 11.7907 198.303 11.574 197.869 11.574H197.323C196.89 11.574 196.673 11.366 196.673 10.95C196.673 10.5513 196.873 10.326 197.271 10.274L198.181 10.17C198.545 10.118 198.762 9.91 198.831 9.546L199.299 7.206C199.369 6.82467 199.603 6.634 200.001 6.634H200.729C201.145 6.634 201.353 6.85067 201.353 7.284L201.301 9.468C201.301 9.90133 201.518 10.118 201.951 10.118H203.745C204.179 10.118 204.395 10.3347 204.395 10.768V10.924C204.395 11.3573 204.179 11.574 203.745 11.574H201.925C201.492 11.574 201.275 11.7907 201.275 12.224V18.802C201.275 19.4433 201.397 19.9027 201.639 20.18C201.899 20.4573 202.229 20.596 202.627 20.596C202.766 20.596 202.922 20.5787 203.095 20.544C203.286 20.492 203.477 20.4053 203.667 20.284ZM211.835 9.676C212.737 9.676 213.56 9.84933 214.305 10.196C215.051 10.5253 215.683 10.9847 216.203 11.574C216.741 12.146 217.148 12.822 217.425 13.602C217.72 14.3647 217.867 15.188 217.867 16.072C217.867 16.9733 217.72 17.814 217.425 18.594C217.148 19.3567 216.749 20.024 216.229 20.596C215.709 21.1507 215.077 21.5927 214.331 21.922C213.586 22.234 212.754 22.39 211.835 22.39C210.917 22.39 210.085 22.234 209.339 21.922C208.594 21.5927 207.961 21.1507 207.441 20.596C206.921 20.024 206.514 19.3567 206.219 18.594C205.942 17.814 205.803 16.9733 205.803 16.072C205.803 15.188 205.942 14.356 206.219 13.576C206.514 12.796 206.921 12.12 207.441 11.548C207.979 10.976 208.611 10.5253 209.339 10.196C210.085 9.84933 210.917 9.676 211.835 9.676ZM211.835 10.846C209.842 10.846 208.845 12.5793 208.845 16.046C208.845 19.478 209.842 21.194 211.835 21.194C213.829 21.194 214.825 19.478 214.825 16.046C214.825 12.5793 213.829 10.846 211.835 10.846ZM223.825 9.806C223.894 9.858 223.946 9.92733 223.981 10.014C224.015 10.1007 224.041 10.2393 224.059 10.43L224.241 12.588C224.709 11.6693 225.246 10.9587 225.853 10.456C226.477 9.936 227.109 9.676 227.751 9.676C228.097 9.676 228.453 9.78 228.817 9.988C229.181 10.196 229.415 10.5513 229.519 11.054C229.519 11.5393 229.371 11.9293 229.077 12.224C228.782 12.5013 228.383 12.64 227.881 12.64C227.291 12.64 226.737 12.3713 226.217 11.834L226.087 11.704C225.705 12.0507 225.359 12.4407 225.047 12.874C224.752 13.29 224.492 13.7927 224.267 14.382V20.05C224.284 20.4487 224.483 20.6827 224.865 20.752L225.697 20.908C226.095 20.9947 226.295 21.194 226.295 21.506C226.295 21.8353 226.078 22 225.645 22H220.445C220.011 22 219.795 21.8353 219.795 21.506C219.795 21.194 219.994 20.9947 220.393 20.908L220.913 20.804C221.294 20.7173 221.493 20.492 221.511 20.128V15.422C221.511 15.0753 221.511 14.7633 221.511 14.486C221.511 14.2087 221.502 13.966 221.485 13.758C221.467 13.6193 221.459 13.4893 221.459 13.368C221.459 13.2467 221.459 13.1167 221.459 12.978C221.424 12.5793 221.216 12.354 220.835 12.302L220.211 12.224C219.812 12.172 219.613 11.99 219.613 11.678C219.613 11.3833 219.786 11.1667 220.133 11.028L223.149 9.858C223.305 9.78867 223.452 9.754 223.591 9.754C223.695 9.754 223.773 9.77133 223.825 9.806Z" fill="#5CE1E6"/>
<path d="M38.5016 21.6407C41.5382 21.6666 44.0913 19.1866 43.333 16.2461C43.0878 15.295 42.7757 14.3593 42.398 13.446C41.3158 10.8281 39.7165 8.44425 37.6915 6.43045C35.6665 4.41664 33.2555 2.81234 30.5961 1.70914C27.9367 0.605946 25.0809 0.0254563 22.192 0.00081859C19.303 -0.0238191 16.4374 0.507877 13.7586 1.56555C11.0799 2.62322 8.64063 4.18616 6.57999 6.16512C4.51935 8.14409 2.87774 10.5003 1.74889 13.0993C1.35553 14.0049 1.02712 14.9338 0.765089 15.8793C-0.0464033 18.8074 2.46452 21.3334 5.50283 21.3593L6.77381 21.3702C9.10837 21.3901 10.9443 19.441 11.8744 17.2996V17.2996C12.4389 16.0002 13.2597 14.822 14.29 13.8326C15.3203 12.8431 16.54 12.0616 17.8793 11.5328C19.2187 11.0039 20.6515 10.7381 22.096 10.7504C23.5405 10.7627 24.9683 11.053 26.298 11.6046C27.6277 12.1562 28.8333 12.9583 29.8458 13.9652C30.8582 14.9721 31.6579 16.1641 32.199 17.473V17.473C33.0907 19.6297 34.8919 21.6099 37.2255 21.6299L38.5016 21.6407Z" fill="white"/>
<ellipse cx="22" cy="21.5" rx="6.875" ry="6.71875" fill="#5CE1E6"/>
</svg>
